<?xml version="1.0" encoding="UTF-8" standalone="no"?>
<!-- Created with Inkscape (http://www.inkscape.org/) -->
<svg
   xmlns:dc="http://purl.org/dc/elements/1.1/"
   xmlns:cc="http://creativecommons.org/ns#"
   xmlns:rdf="http://www.w3.org/1999/02/22-rdf-syntax-ns#"
   xmlns:svg="http://www.w3.org/2000/svg"
   xmlns="http://www.w3.org/2000/svg"
   xmlns:sodipodi="http://sodipodi.sourceforge.net/DTD/sodipodi-0.dtd"
   xmlns:inkscape="http://www.inkscape.org/namespaces/inkscape"
   width="228.62018"
   height="708.71429"
   id="svg2"
   sodipodi:version="0.32"
   inkscape:version="0.46"
   sodipodi:docname="fuseau.svg"
   inkscape:output_extension="org.inkscape.output.svg.inkscape"
   version="1.0">
  <defs
     id="defs4" />
  <sodipodi:namedview
     id="base"
     pagecolor="#ffffff"
     bordercolor="#666666"
     borderopacity="1.0"
     inkscape:pageopacity="0.0"
     inkscape:pageshadow="2"
     inkscape:zoom="0.5"
     inkscape:cx="453.87798"
     inkscape:cy="415.90517"
     inkscape:document-units="px"
     inkscape:current-layer="layer1"
     showgrid="false"
     inkscape:window-width="1152"
     inkscape:window-height="814"
     inkscape:window-x="-8"
     inkscape:window-y="-8" />
  <metadata
     id="metadata7">
    <rdf:RDF>
      <cc:Work
         rdf:about="">
        <dc:format>image/svg+xml</dc:format>
        <dc:type
           rdf:resource="http://purl.org/dc/dcmitype/StillImage" />
      </cc:Work>
    </rdf:RDF>
  </metadata>
  <g
     inkscape:label="Calque 1"
     inkscape:groupmode="layer"
     id="layer1"
     transform="translate(-219.86705,-188.00504)">
    <g
       id="g3198">
      <path
         inkscape:transform-center-y="-34.17858"
         inkscape:transform-center-x="66.892143"
         sodipodi:nodetypes="cscc"
         id="path3196"
         d="M 376.68771,338.26364 C 383.56983,334.54447 401.7423,317.13663 404.90777,301.50671 C 407.4554,288.92744 405.57166,276.17921 398.20283,268.28901 C 355.88681,231.22807 249.9384,264.76171 220.36705,315.5049"
         style="fill:none;fill-rule:evenodd;stroke:#000000;stroke-width:1;stroke-linecap:butt;stroke-linejoin:miter;stroke-miterlimit:4;stroke-dasharray:none;stroke-opacity:1" />
      <rect
         rx="20"
         ry="225.71428"
         y="189.50504"
         x="336.66028"
         height="705.71429"
         width="40"
         id="rect2403"
         style="fill:#ffffff;fill-rule:evenodd;stroke:#000000;stroke-width:3;stroke-linecap:butt;stroke-linejoin:miter;stroke-miterlimit:4;stroke-dasharray:none;stroke-opacity:1" />
      <path
         sodipodi:nodetypes="cczcz"
         d="M 356.66027,696.05618 C 423.68858,696.05618 445.32744,576.00284 446.98723,512.95477 C 442.77792,434.52079 389.81958,328.18777 356.66027,328.18777 C 323.50096,328.18777 270.54262,434.52079 266.33331,512.95477 C 267.9931,576.00284 289.63196,696.05618 356.66027,696.05618 z"
         style="fill:#ffffff;fill-rule:evenodd;stroke:#000000;stroke-width:3;stroke-linecap:butt;stroke-linejoin:miter;stroke-miterlimit:4;stroke-dasharray:none;stroke-opacity:1"
         id="path3177" />
      <path
         transform="translate(3.8031212,-18)"
         d="M 440.00001,738.07648 A 87.14286,28.715008 0 1 1 265.71429,738.07648 A 87.14286,28.715008 0 1 1 440.00001,738.07648 z"
         sodipodi:ry="28.715008"
         sodipodi:rx="87.14286"
         sodipodi:cy="738.07648"
         sodipodi:cx="352.85715"
         id="path2405"
         style="fill:#ffffff;fill-rule:evenodd;stroke:#000000;stroke-width:3;stroke-linecap:butt;stroke-linejoin:miter;stroke-miterlimit:4;stroke-dasharray:none;stroke-opacity:1"
         sodipodi:type="arc" />
      <path
         sodipodi:nodetypes="cccccccccc"
         d="M 274.7615,584.66155 C 280.01206,496.89914 324.18358,382.65533 389.91888,353.33662 M 306.55898,666.59267 C 304.73847,595.49777 363.55151,447.18517 423.2259,415.34108 M 269.09833,549.7671 C 270.30828,473.62144 319.57924,368.06676 376.72825,338.24297 M 281.77007,612.44349 C 289.54601,530.23691 334.10514,399.65972 399.84045,367.81563 M 292.35323,641.32658 C 294.06826,557.0997 346.71286,422.55187 411.94309,389.69763"
         style="fill:none;fill-rule:evenodd;stroke:#000000;stroke-width:1;stroke-linecap:butt;stroke-linejoin:miter;stroke-miterlimit:4;stroke-dasharray:none;stroke-opacity:1"
         id="path3185" />
      <path
         id="path3194"
         style="fill:none;fill-rule:evenodd;stroke:#000000;stroke-width:1;stroke-linecap:butt;stroke-linejoin:miter;stroke-miterlimit:4;stroke-dasharray:none;stroke-opacity:1"
         d="M 438.99792,582.31958 C 433.74736,494.55717 390.73655,380.16586 325.00125,350.84715 M 444.93731,543.19353 C 443.72736,467.04787 395.60875,366.38086 338.45974,336.55707 M 432.22674,610.17612 C 424.4508,527.96954 380.9309,396.98131 315.19559,365.13722"
         sodipodi:nodetypes="cccccc" />
    </g>
  </g>
</svg>
